/* XPM */
static char *aa[] = {
/* width height num_colors chars_per_pixel */
"    29    33       91            2",
/* colors */
".. c #000000",
".# c #ffffff",
".a c #c06077",
".b c #60303b",
".c c #ff86a7",
".d c #080800",
".e c #101000",
".f c #181800",
".g c #202000",
".h c #282800",
".i c #303000",
".j c #383800",
".k c #404000",
".l c #484800",
".m c #505000",
".n c #585800",
".o c #606000",
".p c #686800",
".q c #707000",
".r c #787800",
".s c #808000",
".t c #888800",
".u c #909000",
".v c #989800",
".w c #a0a000",
".x c #a8a800",
".y c #b0b000",
".z c #b8b800",
".A c #c0c000",
".B c #000008",
".C c #000010",
".D c #000018",
".E c #000020",
".F c #000028",
".G c #000030",
".H c #000038",
".I c #000040",
".J c #000048",
".K c #000050",
".L c #000058",
".M c #000070",
".N c #000080",
".O c #000090",
".P c #000098",
".Q c #0000a0",
".R c #0000a8",
".S c #0000b0",
".T c #0000b8",
".U c #0000c8",
".V c #0000d8",
".W c #0000e0",
".X c #0000e8",
".Y c #0000f0",
".Z c #0000f8",
".0 c #f8b0b0",
".1 c #f09898",
".2 c #e88080",
".3 c #e06464",
".4 c #d84c4c",
".5 c #d03030",
".6 c #c81818",
".7 c #c00000",
".8 c #b80000",
".9 c #b00000",
"#. c #a80000",
"## c #a00000",
"#a c #980000",
"#b c #900000",
"#c c #880000",
"#d c #800000",
"#e c #780000",
"#f c #700000",
"#g c #680000",
"#h c #600000",
"#i c #580000",
"#j c #500000",
"#k c #480000",
"#l c #400000",
"#m c #380000",
"#n c #300000",
"#o c #280000",
"#p c #200000",
"#q c #180000",
"#r c #080000",
"#s c #f8f8e0",
"#t c #f0f0c0",
"#u c #e8e8a0",
"#v c #e0e080",
"#w c #d8d860",
"#x c #d0d040",
"#y c #c8c820",
/* pixels */
".G.F.I.I.J.J.H.G.F.E.H.J.H.H.E.E.H.J.H.F.I.F.I.J.H.J.J.I.E",
".I.I.H.F.I.J.I.F.D.G.H.J.J.I.F.G.H.G.G.G.F.I.J.J.F.J.J.I.I",
".H.H.I.J.F.I.H.H.D.D.H.J.J.H.E.D.D.G.E.I.G.F.H.J.H.H.I.H.I",
".H.G.G.H.H.H.H.H.E.C.H#s#s#s#t#u#u#v.D.I.I.I.F.H.H.H.J.H.I",
".G.G.I.I.H.I.H.J#s#s#s#s#s#s#t#t#u#v#w#x.A.G.G.H.G.J.G.I.J",
".J.H.H.G.E.J.F#s#s#s#s#s#s#s#t#t#u#v#w#x.A.z.F.E.F.J.F.G.H",
".H.J.H.H.H#t#t#s#s#s#s#s#s#s#t#t#u#v#w#x.A.z.x.v.F.E.G.G.F",
".I.J.J.I#u#u#t#s#s#s#s#s#s#s#t#u#u#v#w#y.A.y.x.v.t.I.I.G.E",
".H.F.G.H#v#u#t#t#s#s#s#s#s#t#t#u#v#w#x#y.A.y.w.v.t.I.J.H.E",
".F.G.E#w#v#u#u#t#t#t#t#t#t#t#u#u#v#w#x.A.z.y.w.u.s.q.J.H.H",
".D.D#y#x#w#v#u#u#u#t#t#t#u#u#u#v#w#x#y.A.y.x.v.t.r.p.n.I.I",
".F.D.A#y#x#w#v#v#u#u#u#u#u#v#v#w#x#y.A.z.y.w.u.t.r.p.m.H.G",
".G.G.z.A#y#x#w#w#v#v#v#v#v#w#w#x#y.A.z.y.x.v.t.s.q.o.l.F.I",
".I.x.y.z.A#y#x#x#w#w#w#w#w#x#x#y.A.z.y.x.w.u.s.r.p.n.k.i.I",
".H.w.x.y.z.A.A#y#y#x#x#x#y#y.A.A.z.y.x.w.u.t.r.p.n.l.j.h.J",
".I.u.w.x.y.y.z.A.A.A.A.A.A.A.z.y.y.x.w.u.t.r.q.o.m.k.i.f.F",
".G.t.u.v.w.x.y.y.y.z.z.z.y.y.y.x.w.v.u.t.r.q.o.m.k.i.g.e.F",
".I.r.s.t.u.v.w.w.x.x.x.x.x.w.w.v.u.t.s.r.q.o.n.l.j.h.e...F",
".H.p.r.s.t.t.u.v.v.v.v.v.v.v.u.t.t.s.r.p.o.m.l.j.h.f.d...I",
".E.n.p.q.r.r.s.t.t.t.t.t.t.t.s.r.r.q.p.n.m.k.j.h.f.d.....I",
".D.F.n.o.p.p.....C.F.J.r.r.r.q.p.p.....C.F.J.h.f.d.....G.F",
".G.D.k.l.m.B...B.C.F.J.M.p.o.o.n.B...B.C.F.J.M.d.......F.G",
".H.I.i.j.E.C.C.C.E.H.L.N.S.m.l.E.C.C.C.E.H.L.N.S.......I.H",
".G.F.H.g.H.F.F.F.H.K.M.P.U.j.j.H.F.F.F.H.K.M.P.U.....J.J.I",
".I.I.J.E.L.J.J.J.L.M.O.T.X.h.g.L.J.J.J.L.M.O.T.X...G.J.J.G",
".H.F.F.D.N.M.M.M.N.P.T.W.Z.e.d.N.M.M.M.N.P.T.W.Z...F.I.G.G",
".J.G.D.F.S.R.Q.R.S.U.X.Z.Z.....S.R.Q.R.S.U.X.Z.Z.H.E.I.H.I",
".J.I.G.I.I.W.V.W.Y.Z.Z.Z.........W.V.W.Y.Z.Z.Z.F.G.G.I.G.G",
".J.J.J.I.H.F.Z.Z.Z.Z.Z.............Z.Z.Z.Z.Z.F.I.J.J.F.G.H",
".G.H.J.I.G.D.C.H.F.F.G...............I.J.I.F.I.G.I.I.G.H.J",
".I.F.H.J.G.E.C.H.G.G.F.H.F.F.E.G.G.H.I.H.H.I.J.J.H.G.F.H.H",
".G.F.G.J.G.H.H.F.F.E.H.H.H.I.F.F.H.G.G.G.J.H.I.H.H.H.G.H.G",
".F.F.H.H.H.F.G.F.I.H.F.H.I.G.H.E.I.J.H.H.G.E.F.I.G.J.G.G.H"
};
