/* XPM */
static char * Icon2_xpm[] = {
"108 84 39 1",
" 	s mask c none",
".	c #FFFF10404103",
"X	c #FFFFB2CAB6DA",
"o	c #E79D65956185",
"O	c #FFFFFFFFFFFF",
"+	c #F7DE9A699E79",
"@	c #DF7D4D344924",
"#	c #BEFB00000000",
"$	c #C71B00000000",
"%	c #A69900000000",
"&	c #71C600000000",
"*	c #79E700000000",
"=	c #492400000000",
"-	c #861700000000",
";	c #8E3800000000",
":	c #186100000000",
">	c #410300000000",
",	c #30C200000000",
"<	c #082000000000",
"1	c #000000001040",
"2	c #000000000000",
"3	c #EFBE82078617",
"4	c #D75C30C230C2",
"5	c #CF3C18611861",
"6	c #AEBA00000000",
"7	c #9E7900000000",
"8	c #B6DA00000000",
"9	c #514400000000",
"0	c #965800000000",
"q	c #618500000000",
"w	c #69A600000000",
"e	c #28A200000000",
"r	c #596500000000",
"t	c #0000000028A2",
"y	c #38E300000000",
"u	c #208100000000",
"i	c #0000000030C2",
"p	c #000000002081",
"a	c #000000001861",
"                                                          .                                                 ",
"                                                         ...                                                ",
"                                                         ...                                                ",
"                                                        .....                                               ",
"                                                       ......                                               ",
"                                                       .......                                              ",
"                                                      .........                                             ",
"                                                     ..........                                             ",
"                                                    ............                                            ",
"                                                    ............                                            ",
"                                                   ..............                                           ",
"                                                  ................                                          ",
"                                                  ................                                          ",
"                                                 ..................                                         ",
"                              XXo               .........O.........                                         ",
"                             +X+@#              ........OOO.........                                        ",
"                            $@o@$%&            .........OOO..........                                       ",
"                            %###%*=           .........OOOOO.........                                       ",
"                            &-;-&=:          .........OOOOOO..........                                      ",
"                             >=>,<           .........OOOOOOO.........                                      ",
"                              111           .........OOOOOOOO..........                                     ",
"                                           .........OOOOOOOOOO..........                                    ",
"                                           .........OOOOOOOOOOO.........                                    ",
"                                          .........OOOOOOOOOOOO..........                                   ",
"                                         .........OOOOOOOOOOOOOO.........                                   ",
"                                         .........OOOOOOOOOOOOOO..........                                  ",
"                                        .........OOOOOOOOOOOOOOOO..........                                 ",
"                                       .........OOOXXoOOOOOOOOOOO..........                                 ",
"                                      ..........OO+X+@#OOOOOOOOOOO..........                                ",
"                                      .........OO$@o@$%&OOOOOOOOOOO.........                                ",
"                                     ..........OO%###%*=OOOOOOOOOOO..........                               ",
"                                    ..........OOO&-;-&=:OOOOOOOOOOOO..........                              ",
"                                    .........OOOOO>=>,<OOOOOOOOOOOOO..........                              ",
"                                   ..........OOOOOO222OOOOOOOOOOOOOOO..........                             ",
"                 XXo              ..........OOOOOOOOOOOOOOOOOOOOOOOOO..........                             ",
"                +X+@#             .........OOOOOOOOOOOOOOOXXoOOOOOOOOO..........                            ",
"               $@o@$%&           ..........OOOOOOOOOOOOOO+X+@#OOOOOOOO...........                           ",
"               %###%*=          ..........OOOOOOOOOOOOOO$@o@$%&OOOOOOOO..........                           ",
"               &-;-&=:         ..........OOOOOOOOOOOOOOO%###%*=OOOOOOOOO..........                          ",
"                >=>,<          ..........OOOOOOOOOOOOOOO&-;-&=:OOOOOOOOO....222...                          ",
"                 111          ..........OOOOOOOOOOOOOOOOO>=>,<OOOOOOOOOOO..22222...                         ",
"                             ..........OOOOOOOOOOOOOOOOOOO222OOOOOOOOOOOO.2222222...                        ",
"                             ..........OOOOOOOOOOOOOOOOOOOOOOOOOOOOOOOOOOO22222222..                        ",
"                            ..........OOOOOOOOOOOOOOOOOOOOOOOOOOOOOOOOOOOO2222222....                       ",
"                           ..........OOOOOOOOOOXX+3oOOOOOOOOOOOOOOOOOOOOOOO22222......                      ",
"                           ..........OOOOOOOOXXXXX3o4#OOOOOOOOOOOOOOOOOOOOOO..........                      ",
"                          ..........OOOOOOOO3+XXX+3o4#%OOOOOOOOOOOOOOOOOO222222........                     ",
"                         ..........OOOOOOOO@3++X++3@5#%-OOOOOOOOOOOOOO22222222222......                     ",
"                        ...........OOOOOOOO4@33333@4$67*OOOOOOOOOOOOO222OOO2222222......                    ",
"                        ..........OOOOOOOO8$4@ooo@4$8%;&9OOOOOOOOOOOOO222O2222222222.....                   ",
"                       ..........OOOOOOOOO%8$54445$8%0*q>OOOOOOOOOOOOOO22222222..2222222.                   ",
"                      ...........OOOOOOOOO0%6#####6%0*w=eOOOOOOOOOOOOOOO222222O.....2222..                  ",
"                      ..........OOOOOOOOOO*;7%%6%%7;*w9,:OOOOOOOOOOOOOO222222OOO..........                  ",
"                     .......XXoOOOOOOOOOOOq&*-;;;-*&q=,:2OOOOOOOOOOOOO222222222O...........                 ",
"                    .......+X+@#OOOOOOOOOOO9rwwwwwr9>e:2tOOOOOOOOOOOO222222OO222O...........                ",
"                    ......$@o@$%&OOOOOOOOOO,y>===>y,u<22OOOOOOOOOOOO2222222OOOO2O...........                ",
"                   .......%###%*=OOOOOOOOOOi:uueuu:<222OOOOOOOOOOOOO222222OOOOOOOO...........               ",
"                  ........&-;-&=:OOOOOOOOOOO 222222222OOOOOOOOOOOOOO2222222OOOOOOO...........               ",
"                 .........O>=>,<OOOOOOOOOOOOO p22222aOOOOOOOOOOOOOO222222222OOOOOOO...........              ",
"                 ..........O222OOOOOOOOOOOOOOOOOOOOOOOOOOOOOOOOOOOO222OO22222OOOOOOO...........             ",
"                ...........OOOOOOOOOOOOOOOOOOOOOOOOOOOOOOOOOOOOOOO222OOOOO2222OOOOOO...........             ",
"         XXo   ...........OOOOOOOOOOOOOOOOOOOOOOOOOOOOOOOOOOOOOOO2222OOOOOOO222OOOOOO...........            ",
"        +X+@#  ...........OOOOOOOOOOOOOOOOOOOOOOOOOOOOOOOOOOOOOOO222OOOOOOOOO222OOOOO...........            ",
"       $@o@$%&...........OOOOOOOOOOOOOOOOOOOOOOOOOOOOOOOOOOOOOOO222OOOOOOOOOOO222OOOOO...........           ",
"       %###%*=..........OOOOOOOOOOOOOOOOOOOOOOOOOOOOOOOO22222222222OOOOOOOOOO222OOOOOO............          ",
"       &-;-&=:..........OOOOOOOOOOOOOOOOOOOOOOOOOOOOOOO22222222222OOOOOOOOOO222OOOOOOOO...........          ",
"        >=>,<..........OOOOOOOOXXoOOOOOOOOOOOOOOOOOOOO222OOOOOOOOOOOOOOOOOO222OOOOOOOOO............         ",
"         111..........OOOOOOOO+X+@#OOOOOOOOOOOOOOOOOO222OOOOOOOOOOOOOOOOOO222OOOOOOOOOOO...........         ",
"            ..........OOOOOOO$@o@$%&OOOOOOOOOOOOOOOOOOOOOOOOOOOOOOOOOOOOO222OOOOOOOOOOOOO...........        ",
"          ...........OOOOOOOO%###%*=OOOOOOOOOOOOOOOOOOOOOOOOOOOOOOOOOOOO222OOOOOOOOOOOOOO............       ",
"         ...........OOOOOOOOO&-;-&=:OOOOOOOOOOOOOOOOOOOOOOOOOOOOOOOOOOO222OOOOOOOOOOOOOOOO...........       ",
"        ............OOOOOOOOOO>=>,<OOOOOOOOOOOOOOOOOOOOOOOOOOOOOOOOOOO222OOOOOOOOOOOOOOOOO............      ",
"        ...........OOOOOOOOOOOO222OOOOOOOOOOOOOOOOOOOOOOOOOOOOOOOOOOOOO222OOOOOOOOOOOOOOOOO...........      ",
"       ...........OOOOOOOOOOOOOOOOOOOOOOOOOOOOOOOOOOOOOOOOOOOOOOOOOOOOOO222OOOOOOOOOOOOOOOO............     ",
"      ............OOOOOOOOOOOOOOOOOOOOOOOOOOOOOOOOOOOOOOOOOOOOOOOOOOOOOOO22OOOOOOOOOOOOOOOOO............    ",
"      ...........OOOOOOOOOOOOOOOOOOOOOOOOOOOOOOOOOOOOOOOOOOOOOOOOOOOOOOOOOOOOOOOOOOOOOOOOOOOO...........    ",
"     ....................................................................................................   ",
"    .....................................................................................................   ",
"   .......................................................................................................  ",
"   ........................................................................................................ ",
"  ......................................................................................................... ",
" ...........................................................................................................",
" ...........................................................................................................",
"............................................................................................................"};
