/* XPM */
static char * Koules_xpm[] = {
/* width height num_colors chars_per_pixel */
"29 33 56 1",
/* colors */
" 	s None	c None",
".	c #f8f8e0",
"X	c #f0f0c0",
"o	c #e8e8a0",
"O	c #e0e080",
"+	c #d8d860",
"@	c #d0d040",
"#	c #c0c000",
"$	c #b8b800",
"%	c #a8a800",
"&	c #989800",
"*	c #c8c820",
"=	c #b0b000",
"-	c #888800",
";	c #a0a000",
":	c #909000",
">	c #808000",
",	c #707000",
"<	c #787800",
"1	c #686800",
"2	c #585800",
"3	c #505000",
"4	c #606000",
"5	c #484800",
"6	c #404000",
"7	c #303000",
"8	c #383800",
"9	c #282800",
"0	c #181800",
"q	c #202000",
"w	c #101000",
"e	c black",
"r	c #080800",
"t	c #000028",
"y	c #000010",
"u	c #000048",
"i	c #000018",
"p	c #000008",
"a	c #000070",
"s	c #000020",
"d	c #000038",
"f	c #000058",
"g	c #000080",
"h	c #0000b0",
"j	c #000050",
"k	c #000098",
"l	c #0000c8",
"z	c #000090",
"x	c #0000b8",
"c	c #0000e8",
"v	c #0000e0",
"b	c #0000f8",
"n	c #0000a8",
"m	c #0000a0",
"M	c #0000d8",
"N	c #0000f0",
/* pixels */
"                             ",
"                             ",
"                             ",
"           ...XooO           ",
"        ......XXoO+@#        ",
"       .......XXoO+@#$       ",
"     XX.......XXoO+@#$%&     ",
"    ooX.......XooO+*#=%&-    ",
"    OoXX.....XXoO+@*#=;&-    ",
"   +OooXXXXXXXooO+@#$=;:>,   ",
"  *@+OoooXXXoooO+@*#=%&-<12  ",
"  #*@+OOoooooOO+@*#$=;:-<13  ",
"  $#*@++OOOOO++@*#$=%&->,45  ",
" %=$#*@@+++++@@*#$=%;:><1267 ",
" ;%=$##**@@@**##$=%;:-<12589 ",
" :;%==$#######$==%;:-<,43670 ",
" -:&;%===$$$===%;&:-<,4367qw ",
" <>-:&;;%%%%%;;&:-><,42589we ",
" 1<>--:&&&&&&&:--><1435890re ",
" 21,<<>-------><<,1236890ree ",
" t2411eeytu<<<,11eeytu90ree  ",
" i653pepytua1442pepytuareee  ",
"  78syyysdfgh35syyysdfghee   ",
"   qdtttdjakl88dtttdjaklee   ",
"   sfuuufazxc9qfuuufazxce    ",
"    gaaagkxvbwrgaaagkxvbe    ",
"    hnmnhlcbbeehnmnhlcbb     ",
"     vMvNbbbeeeevMvNbbb      ",
"      bbbbbeeeeeebbbbb       ",
"           eeeeeee           ",
"                             ",
"                             ",
"                             "};
